<?xml version="1.0" encoding="UTF-8"?>
<svg id="Layer_1" data-name="Layer 1" xmlns="http://www.w3.org/2000/svg" xmlns:xlink="http://www.w3.org/1999/xlink" viewBox="0 0 1000 1000">
  <defs>
    <style>
      .cls-1 {
        fill: url(#linear-gradient-8);
      }

      .cls-2 {
        fill: url(#linear-gradient-7);
      }

      .cls-3 {
        fill: url(#linear-gradient-5);
      }

      .cls-4 {
        fill: url(#linear-gradient-6);
      }

      .cls-5 {
        fill: url(#linear-gradient-9);
      }

      .cls-6 {
        fill: url(#linear-gradient-4);
      }

      .cls-7 {
        fill: url(#linear-gradient-3);
      }

      .cls-8 {
        fill: url(#linear-gradient-2);
      }

      .cls-9 {
        fill: url(#linear-gradient);
      }

      .cls-10 {
        fill: url(#linear-gradient-43);
      }

      .cls-11 {
        fill: url(#linear-gradient-40);
      }

      .cls-12 {
        fill: url(#linear-gradient-41);
      }

      .cls-13 {
        fill: url(#linear-gradient-42);
      }

      .cls-14 {
        fill: url(#linear-gradient-49);
      }

      .cls-15 {
        fill: url(#linear-gradient-48);
      }

      .cls-16 {
        fill: url(#linear-gradient-45);
      }

      .cls-17 {
        fill: url(#linear-gradient-47);
      }

      .cls-18 {
        fill: url(#linear-gradient-44);
      }

      .cls-19 {
        fill: url(#linear-gradient-46);
      }

      .cls-20 {
        fill: url(#linear-gradient-10);
      }

      .cls-21 {
        fill: url(#linear-gradient-11);
      }

      .cls-22 {
        fill: url(#linear-gradient-12);
      }

      .cls-23 {
        fill: url(#linear-gradient-13);
      }

      .cls-24 {
        fill: url(#linear-gradient-19);
      }

      .cls-25 {
        fill: url(#linear-gradient-14);
      }

      .cls-26 {
        fill: url(#linear-gradient-21);
      }

      .cls-27 {
        fill: url(#linear-gradient-20);
      }

      .cls-28 {
        fill: url(#linear-gradient-22);
      }

      .cls-29 {
        fill: url(#linear-gradient-23);
      }

      .cls-30 {
        fill: url(#linear-gradient-28);
      }

      .cls-31 {
        fill: url(#linear-gradient-25);
      }

      .cls-32 {
        fill: url(#linear-gradient-32);
      }

      .cls-33 {
        fill: url(#linear-gradient-31);
      }

      .cls-34 {
        fill: url(#linear-gradient-33);
      }

      .cls-35 {
        fill: url(#linear-gradient-30);
      }

      .cls-36 {
        fill: url(#linear-gradient-15);
      }

      .cls-37 {
        fill: url(#linear-gradient-16);
      }

      .cls-38 {
        fill: url(#linear-gradient-17);
      }

      .cls-39 {
        fill: url(#linear-gradient-18);
      }

      .cls-40 {
        fill: url(#linear-gradient-35);
      }

      .cls-41 {
        fill: url(#linear-gradient-34);
      }

      .cls-42 {
        fill: url(#linear-gradient-36);
      }

      .cls-43 {
        fill: url(#linear-gradient-38);
      }

      .cls-44 {
        fill: url(#linear-gradient-27);
      }

      .cls-45 {
        fill: url(#linear-gradient-24);
      }

      .cls-46 {
        fill: url(#linear-gradient-26);
      }

      .cls-47 {
        fill: url(#linear-gradient-29);
      }

      .cls-48 {
        fill: url(#linear-gradient-37);
      }

      .cls-49 {
        fill: url(#linear-gradient-39);
      }

      .cls-50 {
        fill: url(#linear-gradient-57);
      }

      .cls-51 {
        fill: url(#linear-gradient-58);
      }

      .cls-52 {
        fill: url(#linear-gradient-59);
      }

      .cls-53 {
        fill: url(#linear-gradient-53);
      }

      .cls-54 {
        fill: url(#linear-gradient-54);
      }

      .cls-55 {
        fill: url(#linear-gradient-55);
      }

      .cls-56 {
        fill: url(#linear-gradient-56);
      }

      .cls-57 {
        fill: url(#linear-gradient-50);
      }

      .cls-58 {
        fill: url(#linear-gradient-51);
      }

      .cls-59 {
        fill: url(#linear-gradient-52);
      }

      .cls-60 {
        fill: url(#linear-gradient-67);
      }

      .cls-61 {
        fill: url(#linear-gradient-68);
      }

      .cls-62 {
        fill: url(#linear-gradient-69);
      }

      .cls-63 {
        fill: url(#linear-gradient-63);
      }

      .cls-64 {
        fill: url(#linear-gradient-64);
      }

      .cls-65 {
        fill: url(#linear-gradient-65);
      }

      .cls-66 {
        fill: url(#linear-gradient-66);
      }

      .cls-67 {
        fill: url(#linear-gradient-60);
      }

      .cls-68 {
        fill: url(#linear-gradient-61);
      }

      .cls-69 {
        fill: url(#linear-gradient-62);
      }

      .cls-70 {
        fill: url(#linear-gradient-79);
      }

      .cls-71 {
        fill: url(#linear-gradient-78);
      }

      .cls-72 {
        fill: url(#linear-gradient-75);
      }

      .cls-73 {
        fill: url(#linear-gradient-72);
      }

      .cls-74 {
        fill: url(#linear-gradient-77);
      }

      .cls-75 {
        fill: url(#linear-gradient-74);
      }

      .cls-76 {
        fill: url(#linear-gradient-76);
      }

      .cls-77 {
        fill: url(#linear-gradient-71);
      }

      .cls-78 {
        fill: url(#linear-gradient-73);
      }

      .cls-79 {
        fill: url(#linear-gradient-70);
      }

      .cls-80 {
        fill: url(#linear-gradient-82);
      }

      .cls-81 {
        fill: url(#linear-gradient-81);
      }

      .cls-82 {
        fill: url(#linear-gradient-80);
      }

      .cls-83 {
        fill: #4056e3;
      }

      .cls-84 {
        fill: #00aeda;
      }
    </style>
    <linearGradient id="linear-gradient" x1="747.52" y1="447.17" x2="745.57" y2="450.55" gradientTransform="translate(0 1002) scale(1 -1)" gradientUnits="userSpaceOnUse">
      <stop offset="0" stop-color="#00aeda"/>
      <stop offset=".02" stop-color="#0e9adc"/>
      <stop offset=".05" stop-color="#2081de"/>
      <stop offset=".08" stop-color="#2e6ee0"/>
      <stop offset=".12" stop-color="#3860e1"/>
      <stop offset=".16" stop-color="#3e58e2"/>
      <stop offset=".25" stop-color="#4056e3"/>
    </linearGradient>
    <linearGradient id="linear-gradient-2" x1="751.5" y1="445.2" x2="747.77" y2="451.66" gradientTransform="translate(0 1002) scale(1 -1)" gradientUnits="userSpaceOnUse">
      <stop offset="0" stop-color="#00add8"/>
      <stop offset=".13" stop-color="#03a1b2"/>
      <stop offset=".25" stop-color="#069894"/>
      <stop offset=".37" stop-color="#08927f"/>
      <stop offset=".48" stop-color="#098e72"/>
      <stop offset=".59" stop-color="#0a8d6e"/>
      <stop offset=".65" stop-color="#0d8975"/>
      <stop offset=".74" stop-color="#177f8a"/>
      <stop offset=".86" stop-color="#266fac"/>
      <stop offset=".98" stop-color="#3c59db"/>
      <stop offset="1" stop-color="#4056e3"/>
    </linearGradient>
    <linearGradient id="linear-gradient-3" x1="723.44" y1="487.05" x2="721.67" y2="490.53" xlink:href="#linear-gradient"/>
    <linearGradient id="linear-gradient-4" x1="727.54" y1="484.97" x2="724.16" y2="491.61" xlink:href="#linear-gradient-2"/>
    <linearGradient id="linear-gradient-5" x1="706.81" y1="522.25" x2="705.22" y2="525.82" xlink:href="#linear-gradient"/>
    <linearGradient id="linear-gradient-6" x1="711.05" y1="520.05" x2="708.01" y2="526.86" xlink:href="#linear-gradient-2"/>
    <linearGradient id="linear-gradient-7" x1="730.59" y1="463.64" x2="728.84" y2="468.2" xlink:href="#linear-gradient"/>
    <linearGradient id="linear-gradient-8" x1="735.28" y1="460.47" x2="731.94" y2="469.17" xlink:href="#linear-gradient-2"/>
    <linearGradient id="linear-gradient-9" x1="716.76" y1="499.23" x2="715.25" y2="503.87" xlink:href="#linear-gradient"/>
    <linearGradient id="linear-gradient-10" x1="721.56" y1="495.89" x2="718.68" y2="504.75" xlink:href="#linear-gradient-2"/>
    <linearGradient id="linear-gradient-11" x1="708.69" y1="528.84" x2="707.42" y2="533.55" xlink:href="#linear-gradient"/>
    <linearGradient id="linear-gradient-12" x1="713.59" y1="525.32" x2="711.18" y2="534.32" xlink:href="#linear-gradient-2"/>
    <linearGradient id="linear-gradient-13" x1="717.56" y1="494.12" x2="716.34" y2="499.85" xlink:href="#linear-gradient"/>
    <linearGradient id="linear-gradient-14" x1="722.81" y1="489.52" x2="720.48" y2="500.46" xlink:href="#linear-gradient-2"/>
    <linearGradient id="linear-gradient-15" x1="712.98" y1="520.5" x2="712.07" y2="526.29" xlink:href="#linear-gradient"/>
    <linearGradient id="linear-gradient-16" x1="718.34" y1="515.68" x2="716.59" y2="526.72" xlink:href="#linear-gradient-2"/>
    <linearGradient id="linear-gradient-17" x1="716.23" y1="499.01" x2="715.51" y2="505.8" xlink:href="#linear-gradient"/>
    <linearGradient id="linear-gradient-18" x1="721.79" y1="493.03" x2="720.43" y2="506.01" xlink:href="#linear-gradient-2"/>
    <linearGradient id="linear-gradient-19" x1="716.77" y1="485.97" x2="716.37" y2="493.78" xlink:href="#linear-gradient"/>
    <linearGradient id="linear-gradient-20" x1="722.5" y1="478.81" x2="721.72" y2="493.7" xlink:href="#linear-gradient-2"/>
    <linearGradient id="linear-gradient-21" x1="715.93" y1="506.99" x2="715.93" y2="514.8" xlink:href="#linear-gradient"/>
    <linearGradient id="linear-gradient-22" x1="721.74" y1="499.53" x2="721.74" y2="514.44" xlink:href="#linear-gradient-2"/>
    <linearGradient id="linear-gradient-23" x1="715.81" y1="499.66" x2="716.26" y2="508.43" xlink:href="#linear-gradient"/>
    <linearGradient id="linear-gradient-24" x1="721.69" y1="490.95" x2="722.57" y2="507.7" xlink:href="#linear-gradient-2"/>
    <linearGradient id="linear-gradient-25" x1="715.36" y1="496.49" x2="716.38" y2="506.2" xlink:href="#linear-gradient"/>
    <linearGradient id="linear-gradient-26" x1="721.26" y1="486.49" x2="723.21" y2="505.03" xlink:href="#linear-gradient-2"/>
    <linearGradient id="linear-gradient-27" x1="715.02" y1="496.1" x2="716.7" y2="506.7" xlink:href="#linear-gradient"/>
    <linearGradient id="linear-gradient-28" x1="720.82" y1="484.8" x2="724.02" y2="505.05" xlink:href="#linear-gradient-2"/>
    <linearGradient id="linear-gradient-29" x1="716.61" y1="505.08" x2="718.85" y2="515.58" xlink:href="#linear-gradient"/>
    <linearGradient id="linear-gradient-30" x1="722.43" y1="493.36" x2="726.7" y2="513.42" xlink:href="#linear-gradient-2"/>
    <linearGradient id="linear-gradient-31" x1="716.37" y1="503.59" x2="719.4" y2="514.91" xlink:href="#linear-gradient"/>
    <linearGradient id="linear-gradient-32" x1="722.01" y1="490.51" x2="727.8" y2="512.11" xlink:href="#linear-gradient-2"/>
    <linearGradient id="linear-gradient-33" x1="715.59" y1="500.91" x2="719.81" y2="513.91" xlink:href="#linear-gradient"/>
    <linearGradient id="linear-gradient-34" x1="720.71" y1="485.53" x2="728.77" y2="510.34" xlink:href="#linear-gradient-2"/>
    <linearGradient id="linear-gradient-35" x1="715.94" y1="501.91" x2="721.19" y2="515.59" xlink:href="#linear-gradient"/>
    <linearGradient id="linear-gradient-36" x1="720.66" y1="485.13" x2="730.67" y2="511.23" xlink:href="#linear-gradient-2"/>
    <linearGradient id="linear-gradient-37" x1="715.84" y1="501.82" x2="722.19" y2="516.09" xlink:href="#linear-gradient"/>
    <linearGradient id="linear-gradient-38" x1="720.11" y1="483.6" x2="732.24" y2="510.83" xlink:href="#linear-gradient-2"/>
    <linearGradient id="linear-gradient-39" x1="715.06" y1="500.31" x2="722.6" y2="515.1" xlink:href="#linear-gradient"/>
    <linearGradient id="linear-gradient-40" x1="718.83" y1="480.61" x2="733.21" y2="508.84" xlink:href="#linear-gradient-2"/>
    <linearGradient id="linear-gradient-41" x1="716.15" y1="502.47" x2="725.43" y2="518.53" xlink:href="#linear-gradient"/>
    <linearGradient id="linear-gradient-42" x1="718.89" y1="480.44" x2="736.59" y2="511.11" xlink:href="#linear-gradient-2"/>
    <linearGradient id="linear-gradient-43" x1="717.59" y1="504.74" x2="728.76" y2="521.93" xlink:href="#linear-gradient"/>
    <linearGradient id="linear-gradient-44" x1="719.18" y1="480.37" x2="740.49" y2="513.19" xlink:href="#linear-gradient-2"/>
    <linearGradient id="linear-gradient-45" x1="714.33" y1="500.02" x2="726.96" y2="517.4" xlink:href="#linear-gradient"/>
    <linearGradient id="linear-gradient-46" x1="715.12" y1="474.11" x2="739.22" y2="507.27" xlink:href="#linear-gradient-2"/>
    <linearGradient id="linear-gradient-47" x1="714.45" y1="500.4" x2="729.2" y2="518.61" xlink:href="#linear-gradient"/>
    <linearGradient id="linear-gradient-48" x1="713.79" y1="472.15" x2="741.94" y2="506.91" xlink:href="#linear-gradient-2"/>
    <linearGradient id="linear-gradient-49" x1="713.63" y1="499.71" x2="730.62" y2="518.58" xlink:href="#linear-gradient"/>
    <linearGradient id="linear-gradient-50" x1="711.34" y1="469.18" x2="743.76" y2="505.19" xlink:href="#linear-gradient-2"/>
    <linearGradient id="linear-gradient-51" x1="718.11" y1="504.49" x2="738.13" y2="524.51" xlink:href="#linear-gradient"/>
    <linearGradient id="linear-gradient-52" x1="713.41" y1="470.97" x2="751.63" y2="509.19" xlink:href="#linear-gradient-2"/>
    <linearGradient id="linear-gradient-53" x1="714.82" y1="501.34" x2="737.31" y2="521.59" xlink:href="#linear-gradient"/>
    <linearGradient id="linear-gradient-54" x1="708.16" y1="465.57" x2="751.09" y2="504.23" xlink:href="#linear-gradient-2"/>
    <linearGradient id="linear-gradient-55" x1="716.94" y1="503.21" x2="742.74" y2="524.1" xlink:href="#linear-gradient"/>
    <linearGradient id="linear-gradient-56" x1="707.46" y1="464.58" x2="756.7" y2="504.45" xlink:href="#linear-gradient-2"/>
    <linearGradient id="linear-gradient-57" x1="717.44" y1="503.56" x2="746.66" y2="524.79" xlink:href="#linear-gradient"/>
    <linearGradient id="linear-gradient-58" x1="704.92" y1="462.12" x2="760.71" y2="502.65" xlink:href="#linear-gradient-2"/>
    <linearGradient id="linear-gradient-59" x1="715.92" y1="502.51" x2="748.67" y2="523.79" xlink:href="#linear-gradient"/>
    <linearGradient id="linear-gradient-60" x1="700.14" y1="458.38" x2="762.6" y2="498.94" xlink:href="#linear-gradient-2"/>
    <linearGradient id="linear-gradient-61" x1="712.16" y1="500.43" x2="748.52" y2="521.42" xlink:href="#linear-gradient"/>
    <linearGradient id="linear-gradient-62" x1="692.91" y1="453.62" x2="762.31" y2="493.69" xlink:href="#linear-gradient-2"/>
    <linearGradient id="linear-gradient-63" x1="713.93" y1="501.63" x2="754.83" y2="522.47" xlink:href="#linear-gradient"/>
    <linearGradient id="linear-gradient-64" x1="690.16" y1="451.83" x2="768.2" y2="491.59" xlink:href="#linear-gradient-2"/>
    <linearGradient id="linear-gradient-65" x1="713.14" y1="501.5" x2="758.63" y2="521.76" xlink:href="#linear-gradient"/>
    <linearGradient id="linear-gradient-66" x1="684.58" y1="448.83" x2="771.4" y2="487.49" xlink:href="#linear-gradient-2"/>
    <linearGradient id="linear-gradient-67" x1="717.3" y1="503.38" x2="768.35" y2="522.98" xlink:href="#linear-gradient"/>
    <linearGradient id="linear-gradient-68" x1="682.83" y1="447.6" x2="780.26" y2="485" xlink:href="#linear-gradient-2"/>
    <linearGradient id="linear-gradient-69" x1="718.41" y1="503.72" x2="775.06" y2="522.13" xlink:href="#linear-gradient"/>
    <linearGradient id="linear-gradient-70" x1="677.69" y1="445.14" x2="785.81" y2="480.27" xlink:href="#linear-gradient-2"/>
    <linearGradient id="linear-gradient-71" x1="716.39" y1="503.17" x2="778.63" y2="519.85" xlink:href="#linear-gradient"/>
    <linearGradient id="linear-gradient-72" x1="669.13" y1="441.94" x2="787.93" y2="473.78" xlink:href="#linear-gradient-2"/>
    <linearGradient id="linear-gradient-73" x1="718.25" y1="503.64" x2="787.01" y2="518.26" xlink:href="#linear-gradient"/>
    <linearGradient id="linear-gradient-74" x1="663.22" y1="439.85" x2="794.46" y2="467.75" xlink:href="#linear-gradient-2"/>
    <linearGradient id="linear-gradient-75" x1="716.68" y1="503.4" x2="791.91" y2="515.32" xlink:href="#linear-gradient"/>
    <linearGradient id="linear-gradient-76" x1="653.58" y1="437.33" x2="797.15" y2="460.07" xlink:href="#linear-gradient-2"/>
    <linearGradient id="linear-gradient-77" x1="718.12" y1="503.64" x2="800.65" y2="512.32" xlink:href="#linear-gradient"/>
    <linearGradient id="linear-gradient-78" x1="645.64" y1="435.5" x2="803.17" y2="452.06" xlink:href="#linear-gradient-2"/>
    <linearGradient id="linear-gradient-79" x1="715.98" y1="503.59" x2="805.68" y2="508.3" xlink:href="#linear-gradient"/>
    <linearGradient id="linear-gradient-80" x1="633.79" y1="433.73" x2="805.04" y2="442.7" xlink:href="#linear-gradient-2"/>
    <linearGradient id="linear-gradient-81" x1="716.12" y1="503.76" x2="813.77" y2="503.76" xlink:href="#linear-gradient"/>
    <linearGradient id="linear-gradient-82" x1="622.92" y1="432.64" x2="809.29" y2="432.64" xlink:href="#linear-gradient-2"/>
  </defs>
  <path class="cls-83" d="M375.25,483.63c-.83-6.12-4.23-10.36-10.06-12.41-3.73-1.34-7.67-1.42-11.31.07-5.24,2.17-10.29,4.79-15.44,7.24-.73.33-1.42.75-2.53,1.34v-20.91h-6.35v36.17c-2,0-3.73.02-5.48,0-3.68-.07-6.12-2.12-6.56-5.83-.26-2.13-.16-4.3-.17-6.47-.02-2.65-.02-5.31-.02-8.03h-6.47c0,4.6.09,9.06-.02,13.5-.05,2.86-.88,5.62-3.97,6.4-3.26.83-6.99,1.39-9.42-1.67-1.21-1.53-1.73-3.92-1.86-5.97-.29-4.04-.1-8.14-.1-12.28h-6.44v2.59c0,3.63.05,7.25-.02,10.86-.09,3.61-1.61,6.28-4.3,6.61-3.3.36-64.87.09-68.45.09v-29.04h-6.35v5.59c-2.83,0-5.34-.09-7.88.02-7.98.28-13.98,5.59-15.49,12.6-.26,1.13-.38,2.31-.38,3.52s.12,2.38.38,3.63c.02.03.02.1.02.16,2.17,9.94,13.85,14.37,22.02,8.29.54-.38,1.08-.78,1.72-1.25,1.3,3.23,3.9,3.92,6.8,4.03,1.54.03,61.28-.07,62.82.02,5.47.28,9.92-1.23,12.32-6.73,4.35,9.49,18.44,8.52,21.95-.12,2.2,4.48,5.5,6.8,10.22,6.84,10.55.02,21.12.09,31.68-.02,4.53-.03,8.88-1.01,12.67-3.68,5.22-3.71,7.34-8.85,6.51-15.08l-.02-.05ZM209.87,491.09c-.02.64-.57,1.41-1.09,1.87-3.09,2.76-6.77,3.21-10.6,2.24-3.11-.76-5.12-2.83-5.67-6.02-.62-3.35.14-6.4,2.91-8.47,1.49-1.11,3.4-2,5.22-2.24,2.93-.35,5.97-.09,9.26-.09,0,4.39.03,8.54-.03,12.68v.02ZM364.91,493.29c-2.01,1.11-4.41,2.01-6.68,2.12-7.29.24-14.61.09-22.26.09,0-2.88-.03-5.48.03-8.1,0-.5.36-1.25.76-1.47,6.51-3.45,12.77-7.48,20.2-8.74,6.18-1.04,11.28,2.13,12.02,7.51.52,3.78-.83,6.8-4.09,8.61h.02Z"/>
  <path class="cls-83" d="M506.92,479.95c-2.15-7.1-8.76-10.91-16.31-9.87-6.56.88-11.43,6.33-11.97,13.36-.1,1.3-.09,2.62-.1,3.92v7.86c-6.37-.68-12.68,1.27-18.86-2.22,6.25-6.38,12.11-12.67,10.98-22.36h-34.28c-.4,3.14-.28,5.9,1.8,8.54,2.48,3.12,4.58,6.59,6.8,9.91.92,1.39,1.84,2.78,2.88,4.39-7.29,2.91-14.57,1.08-22.02,1.72v-29.3h-6.4v5.53c-2.74,0-5.19-.05-7.65.02-10.72.33-17.87,9.49-15.62,19.95,2.05,9.59,13.39,14.14,21.5,8.61.66-.45,1.34-.97,2.15-1.58,1.09,2.41,2.97,3.8,5.41,3.85,5.38.1,10.77.16,16.15-.1,4.67-.26,8.61-2.71,11.64-5.1,3.54,1.75,6.4,3.87,9.54,4.53,6.11,1.28,12.37,1.53,18.51-.26.76-.24,1.67-.14,2.5-.05,5.67.52,11.35,1.15,17.02,1.54.87.05,2.13-.5,2.64-1.21,4.88-6.59,5.99-13.93,3.64-21.69l.03.03ZM419.49,491.36c0,.57-.64,1.21-1.13,1.65-3.11,2.72-6.78,3.16-10.6,2.15-4.04-1.08-6.12-4.37-5.78-8.59.38-4.29,3.56-7.69,8.12-8.14,3.04-.29,6.12-.05,9.44-.05,0,4.39.02,8.68-.05,12.98ZM452.47,490.01c-2.83-4.06-5.53-8.22-8.5-12.67h20.07c-.66,1.58-1.01,3.11-1.87,4.22-2.22,2.86-4.65,5.52-7.01,8.26-.83.97-1.89,1.35-2.71.21l.02-.02ZM500.27,494.38c-.28.57-1.13,1.27-1.67,1.25-4.58-.33-9.16-.83-13.86-1.27,0-3.28-.21-6.44.03-9.56.33-4.41,2.91-7.36,6.56-7.81,4.42-.57,8.22,1.54,9.72,5.73,1.41,3.97,1.01,7.91-.78,11.68v-.02Z"/>
  <path class="cls-83" d="M571.01,484.65v6.68h-.36c-3.58,0-7.13-.12-10.67.07-1.34.07-2.9.57-3.87,1.42-5.15,4.51-10.74,8.21-17.68,8.9-5.48.57-11.07.71-16.6.57-4.39-.1-6.18-2.57-6.19-7.53-.05-10.5,0-20.98,0-31.47v-4.44h6.42v36.19c3.94,0,7.68.07,11.41,0,6.61-.14,12.81-1.67,18.17-5.78,1.65-1.27,1.51-1.72-.16-2.72-6.36-3.87-12.65-7.84-19.22-11.94,1.53-2.2,2.69-3.87,3.99-5.76,10.34,8,20.49,16.01,34.41,15.81h.36Z"/>
  <path class="cls-83" d="M292.43,508.38c2.12.07,3.71,1.63,3.73,3.63,0,2.01-1.82,3.76-3.92,3.75-2.12,0-3.87-1.77-3.82-3.83.05-2.12,1.74-3.61,4.01-3.54Z"/>
  <path class="cls-83" d="M549.37,508.38c2.17.05,3.71,1.54,3.71,3.59s-1.72,3.78-3.85,3.78-3.84-1.7-3.82-3.82c.02-2.13,1.66-3.63,3.97-3.56h-.02Z"/>
  <path class="cls-83" d="M198.66,458.55c-2.01-.03-3.52-1.53-3.52-3.47s1.68-3.61,3.73-3.54c1.96.07,3.54,1.63,3.56,3.5,0,2-1.65,3.54-3.76,3.5Z"/>
  <path class="cls-83" d="M322.52,511.87c0,1.96-1.75,3.57-3.78,3.5-1.94-.07-3.49-1.65-3.49-3.54,0-2.01,1.63-3.52,3.76-3.45,1.96.05,3.52,1.61,3.52,3.49h-.02Z"/>
  <path class="cls-83" d="M417.8,458.54c-2-.03-3.57-1.58-3.56-3.49.03-1.89,1.67-3.5,3.59-3.5,2.05,0,3.75,1.7,3.68,3.66-.07,1.89-1.72,3.35-3.71,3.33Z"/>
  <path class="cls-83" d="M408.32,451.53c2.06-.02,3.73,1.58,3.7,3.57-.02,1.93-1.54,3.4-3.56,3.44-2.13.05-3.71-1.47-3.68-3.52.03-1.94,1.58-3.47,3.54-3.49Z"/>
  <path class="cls-83" d="M208.34,458.54c-2.05.03-3.63-1.39-3.7-3.33-.07-1.93,1.46-3.56,3.42-3.66,2.03-.1,3.8,1.53,3.82,3.5,0,1.93-1.53,3.44-3.56,3.49h.02Z"/>
  <path class="cls-83" d="M309.37,515.38c-2.01,0-3.64-1.67-3.59-3.66.05-1.93,1.58-3.35,3.61-3.35s3.54,1.42,3.61,3.37c.05,1.96-1.61,3.64-3.63,3.64Z"/>
  <path class="cls-83" d="M266.89,556.18c-.24-.14-.42-.36-.62-.52.24-.26.47-.62.75-.76,2.32-1.21,3.4-3.14,3.45-5.67.09-3.8-2.22-6.91-6.18-7.36-3.99-.47-8.03-.28-12.04-.36-.38-.02-.76.05-1.16.1v30.15c4.65-.14,9.23-.07,13.72-.57,3.66-.4,6.09-3.33,6.54-6.8.47-3.9-.87-6.4-4.42-8.19l-.03-.02ZM255.77,546.05c2.41,0,4.79-.17,7.15.07,1.79.16,2.78,1.89,2.67,3.89-.1,1.96-1.13,3.33-3,3.47-2.2.16-4.42.03-6.84.03v-7.46h.02ZM266.51,563.11c-.21,2.17-1.72,3.83-3.97,3.97-2.2.14-4.42.03-6.77.03v-9.49c2.55.12,5.1.02,7.55.42,2.24.36,3.38,2.53,3.18,5.05l.02.02Z"/>
  <path class="cls-83" d="M382.36,541.54h4.39v30.07c-2.29,0-4.58.05-6.84-.05-.36,0-.85-.71-1.01-1.18-2.46-7.23-4.88-14.5-7.32-21.76-.17-.5-.64-.92-.95-1.39-.16.09-.33.16-.49.24v24.01h-4.46v-29.91h7.62c1.89,5.76,3.8,11.57,5.71,17.37.64,1.94,1.23,3.89,1.94,5.8.16.42.64.71.97,1.06.14-.09.29-.17.43-.24v-24.03.02Z"/>
  <path class="cls-83" d="M475.04,557.26c3.66-1.93,5.34-5.08,4.75-8.9-.54-3.4-3.24-6.11-7.06-6.68-1.79-.29-3.66-.17-5.5-.17-2.97-.03-5.93,0-8.94,0v30.02h4.62v-13.38c1.96,0,3.68.09,5.41-.03,1.11-.05,1.53.38,1.8,1.41,1.11,4.03,2.31,8.02,3.49,12.01h5.01c-1.46-4.68-2.86-9.28-4.27-13.86.35-.17.52-.28.68-.38v-.02ZM471.77,553.58c-2.9.17-5.79.03-8.8.03v-7.51c3.16,0,6.33-.21,9.42.05,1.86.17,2.78,1.96,2.64,3.92-.12,1.86-1.3,3.37-3.26,3.49v.02Z"/>
  <path class="cls-83" d="M317.75,553.61v-12.01h4.6v29.91h-4.55v-13.27h-11.3v13.29h-4.67v-29.91h4.56v12.01h11.33l.02-.02Z"/>
  <path class="cls-83" d="M482.71,561.91h4.75c.05.16.14.33.17.52,1.06,4.44,5.1,6.58,9.4,4.94,1.75-.66,2.71-1.98,2.79-3.83.09-2.03-.54-3.24-2.48-3.96-1.89-.71-3.9-1.11-5.85-1.67-.9-.26-1.82-.52-2.69-.87-3.83-1.54-5.43-3.87-5.33-7.7.09-3.47,2.24-6.37,5.76-7.55,2.86-.95,5.78-.97,8.64,0,3.7,1.27,6.09,4.63,6.12,8.76-1.41,0-2.83.05-4.23-.05-.26,0-.61-.57-.69-.94-.99-3.94-4.3-4.98-7.98-3.92-1.58.45-2.45,1.65-2.59,3.3-.14,1.67.45,2.85,2.19,3.5,1.98.76,4.08,1.21,6.12,1.82.71.21,1.44.38,2.13.64,4.22,1.6,6.07,4.25,5.9,8.45-.16,3.9-2.59,6.96-6.58,8.07-3.31.92-6.61.78-9.75-.68-3.7-1.72-5.33-4.82-5.81-8.85h-.02Z"/>
  <path class="cls-83" d="M289.8,541.51c-2.38,0-4.58.05-6.75-.03-1.13-.07-1.49.36-1.75,1.41-2.12,8.17-4.29,16.31-6.44,24.5-.36,1.37-.73,2.74-1.09,4.18h4.86c.73-2.88,1.53-5.71,2.13-8.54.24-1.25.78-1.58,2-1.51,2.1.1,4.16.09,6.26,0,1.02-.03,1.47.24,1.72,1.28.59,2.62,1.27,5.22,2,7.81.09.38.5.95.8.97,1.35.1,2.72.03,4.23.03-2.67-10.17-5.29-20.09-7.96-30.1ZM282.2,557.28c.9-3.66,1.79-7.24,2.72-10.77.05-.26.57-.57.85-.54.28.02.68.38.75.66.95,3.49,1.84,6.99,2.76,10.65h-7.08Z"/>
  <path class="cls-83" d="M221.66,541.56h-8.17c-2.62,9.99-5.26,19.95-7.91,30.02h4.89c.66-2.71,1.47-5.31,1.96-7.98.29-1.77,1.08-2.26,2.76-2.1,1.77.14,3.59.1,5.36,0,1.28-.09,1.84.33,2.12,1.6.61,2.85,1.41,5.64,2.12,8.48h4.81c-2.65-10.12-5.27-20.04-7.91-30.02h-.02ZM214.05,557.26c.38-1.6.75-3.11,1.13-4.63.49-1.98.97-3.96,1.51-5.9.09-.33.5-.69.85-.76.23-.07.75.29.8.56.95,3.54,1.84,7.1,2.78,10.74h-7.06Z"/>
  <path class="cls-83" d="M354.51,541.54h4.62c.05.31.14.59.14.88,0,6.37-.02,12.72,0,19.09.03,7.7-5.5,11.47-13.05,10.25-5-.8-7.98-4.25-8.08-9.23-.12-6.8-.03-13.62-.03-20.42,0-.14.05-.28.1-.52h4.6v19.78c0,4.15,2.22,6.28,6.3,6.12,2.98-.12,5-2,5.31-5,.07-.59.07-1.2.07-1.79v-19.17h.03Z"/>
  <path class="cls-83" d="M440.08,553.91h11.54v4.22h-11.55v9.04h12.77v4.35h-17.47v-29.91h17.45v4.25h-12.72v8.05h-.02Z"/>
  <path class="cls-83" d="M419.16,566.98c1.15.47,1.46-.03,1.67-1.01,1.63-7.53,3.3-15.04,4.96-22.55.12-.57.26-1.16.42-1.82h4.86c-.05.36-.07.75-.16,1.09-2.15,9.2-4.34,18.37-6.44,27.59-.26,1.11-.69,1.42-1.79,1.39-2.38-.09-4.75-.02-7.25-.02-2.39-10.03-4.77-19.95-7.17-30.03h4.94c1.98,8.45,3.96,16.95,5.93,25.38l.02-.02Z"/>
  <path class="cls-83" d="M546.58,541.49c1.61,0,2.95-.09,4.27.05.44.03.97.57,1.18,1.01,1.58,3.44,3.07,6.91,4.65,10.32.26.57.9.97,1.37,1.44.43-.45,1.02-.83,1.27-1.39,1.56-3.44,3.07-6.91,4.53-10.38.34-.82.76-1.15,1.65-1.08,1.23.07,2.48.02,3.96.02-.31.68-.54,1.2-.78,1.72-2.57,5.27-5.17,10.51-7.7,15.81-.38.82-.61,1.79-.62,2.69-.07,3.23-.03,6.45-.03,9.8h-4.72c0-1.32-.12-2.69.02-4.04.56-5.03-.71-9.54-3.17-13.91-2.14-3.8-3.83-7.84-5.87-12.04l.02-.02Z"/>
  <path class="cls-83" d="M517.81,567.15h3.82v4.36h-12.56v-4.36h3.8v-21.22h-3.8v-4.35h12.53v4.25h-3.8v21.32h.02Z"/>
  <path class="cls-83" d="M241.36,545.88v21.2h3.83v4.44h-12.54v-4.3h3.83v-21.25h-3.82v-4.35h12.56v4.27h-3.87Z"/>
  <path class="cls-83" d="M392.52,571.49v-4.34h3.87v-21.25h-3.85v-4.32h12.56v4.29h-3.83v21.27h3.85v4.35h-12.6Z"/>
  <path class="cls-83" d="M198.97,571.56h-4.74v-25.61h-7.77v-4.37h20.18v4.27h-7.67v25.71Z"/>
  <path class="cls-83" d="M532.77,571.5v-25.57h-7.69v-4.32h20.18v4.27h-7.65v25.63h-4.84Z"/>
  <path class="cls-9" d="M716.5,496.31h.02l-.02.09c-.12-.02-.24,0-.34.07-1.58,1.15-2.45,3.05-2.22,5,0,.05.02.1.05.16l-.07.03v-.02c-.03-.07-.05-.12-.05-.19-.21-1.98.64-3.92,2.25-5.07.12-.09.28-.12.42-.09l-.04.02Z"/>
  <path class="cls-8" d="M716.54,496.32c.12.03.24.12.31.24l2.95,5.1c.07.12.09.26.05.4h-.07v-.03c.03-.1,0-.24-.05-.33l-2.95-5.1c-.05-.1-.16-.17-.28-.21v-.07h.03Z"/>
  <path class="cls-84" d="M713.88,501.67l.07-.03s.07.1.12.12c1.58,1.16,3.66,1.37,5.45.57.1-.05.21-.14.24-.26v-.03h.07v.05c-.05.14-.15.26-.28.31-1.8.82-3.92.59-5.51-.57-.05-.03-.11-.09-.14-.14v-.02h-.02Z"/>
  <path class="cls-7" d="M716.76,495.98h.02l-.03.09c-.14-.03-.28,0-.38.07-1.79,1.15-2.83,3.17-2.71,5.29,0,.07.02.12.05.17l-.07.03v-.02c-.03-.07-.05-.14-.05-.21-.12-2.15.94-4.22,2.74-5.38.14-.09.29-.1.45-.07l-.02.02Z"/>
  <path class="cls-6" d="M716.8,496c.14.05.26.16.31.28l2.9,5.71c.07.14.09.29.03.43h-.09v-.03c.03-.12.02-.26-.03-.36l-2.9-5.71c-.05-.12-.15-.21-.28-.24l.04-.09.02.02Z"/>
  <path class="cls-84" d="M713.63,501.66l.07-.03s.07.1.12.14c1.65,1.35,3.9,1.7,5.88.94.12-.05.23-.16.28-.28v-.03h.09v.07c-.05.16-.17.26-.33.33-2.01.78-4.29.42-5.95-.94-.05-.05-.1-.1-.14-.16v-.02l-.02-.02Z"/>
  <path class="cls-3" d="M717.09,495.65l-.04.09c-.14-.05-.29-.03-.42.05-2.01,1.15-3.24,3.28-3.23,5.6,0,.07,0,.14.03.19l-.08.03v-.02c-.04-.07-.05-.16-.05-.23,0-2.34,1.25-4.53,3.28-5.67.16-.09.33-.1.51-.05Z"/>
  <path class="cls-4" d="M717.11,495.65c.14.07.26.17.33.33l2.83,6.35c.07.16.07.33,0,.49l-.09-.03c.05-.14.03-.28,0-.42l-2.83-6.35c-.05-.12-.15-.23-.29-.28l.03-.09h.02Z"/>
  <path class="cls-84" d="M713.34,501.62l.09-.03s.07.12.12.17c1.72,1.56,4.13,2.06,6.33,1.35.14-.05.26-.16.31-.28v-.03l.09.03v.03c-.07.16-.21.28-.38.33-2.22.75-4.69.21-6.42-1.37-.05-.05-.1-.12-.14-.19v-.02Z"/>
  <path class="cls-2" d="M717.42,495.29h.02l-.04.1c-.15-.05-.31-.05-.47.02-2.24,1.13-3.71,3.38-3.83,5.9,0,.07,0,.14.03.21v.02l-.09.03v-.02c-.03-.09-.03-.17-.03-.24.12-2.55,1.61-4.84,3.89-5.99.17-.09.36-.09.56-.03h-.04Z"/>
  <path class="cls-1" d="M717.46,495.31h.02c.16.07.28.21.35.36l2.71,7.06c.07.17.05.35,0,.52l-.09-.03c.05-.16.05-.31,0-.45l-2.71-7.06c-.05-.14-.17-.26-.31-.33l.03-.09v.02Z"/>
  <path class="cls-84" d="M713.03,501.58l.09-.03s.07.14.12.19c1.77,1.79,4.37,2.48,6.78,1.82.16-.03.28-.14.36-.28v-.05l.09.03v.03h-.02c-.09.17-.24.29-.44.35-2.45.68-5.1-.03-6.89-1.84-.05-.05-.1-.14-.14-.21v-.02h.04Z"/>
  <path class="cls-5" d="M717.82,494.92h.02l-.05.1c-.15-.07-.34-.07-.5,0-2.5,1.09-4.22,3.45-4.49,6.18,0,.09,0,.16.02.24v.02l-.1.03v-.03c-.02-.09-.03-.19-.03-.28.28-2.76,2.03-5.15,4.56-6.26.19-.09.4-.09.59,0Z"/>
  <path class="cls-20" d="M717.87,494.96h.02c.15.09.29.24.34.42l2.53,7.81c.05.19.03.38-.05.56l-.1-.05c.07-.16.09-.33.04-.49l-2.53-7.81c-.05-.16-.16-.29-.31-.36l.05-.1.02.03Z"/>
  <path class="cls-84" d="M712.71,501.5l.1-.03s.07.16.12.21c1.82,2.05,4.6,2.95,7.27,2.36.17-.03.31-.14.4-.29v-.05l.11.05v.05h-.02c-.1.17-.28.31-.49.35-2.71.59-5.52-.33-7.37-2.39-.07-.07-.1-.16-.14-.24v-.03l.02.03Z"/>
  <path class="cls-21" d="M718.28,494.56h.02l-.05.12c-.17-.09-.36-.1-.54-.03-2.78,1.04-4.77,3.52-5.22,6.45v.28l-.1.03v-.03c-.02-.1-.04-.21,0-.29.47-2.98,2.5-5.48,5.31-6.54.21-.07.45-.07.64.03l-.05-.02Z"/>
  <path class="cls-22" d="M718.33,494.59h.02c.17.1.29.28.34.47l2.31,8.62c.05.21.02.42-.09.61l-.1-.05c.09-.17.1-.35.05-.52l-2.31-8.62c-.05-.17-.16-.33-.31-.42l.05-.1.04.02Z"/>
  <path class="cls-84" d="M712.36,501.39l.11-.03c.02.09.07.17.12.24,1.85,2.32,4.82,3.45,7.75,2.98.19-.03.35-.14.45-.29v-.05l.1.05-.03.05c-.12.19-.33.31-.54.35-2.97.49-5.99-.66-7.86-3.02-.07-.07-.11-.17-.14-.26v-.03l.03.02Z"/>
  <path class="cls-23" d="M718.81,494.2h.02l-.07.12h-.02c-.19-.1-.4-.12-.59-.07-3.07.97-5.38,3.54-6.04,6.71-.02.09-.02.19,0,.28v.02l-.12.03v-.03c-.02-.1-.02-.23,0-.33.68-3.21,3.02-5.81,6.13-6.8.22-.07.49-.05.69.07Z"/>
  <path class="cls-25" d="M718.85,494.21h.02c.19.12.31.31.36.54l2.01,9.49c.05.23,0,.47-.12.66l-.1-.07c.1-.17.14-.38.09-.56l-2.02-9.49c-.03-.19-.15-.36-.33-.47l.07-.1h.02Z"/>
  <path class="cls-84" d="M711.98,501.28l.12-.03c.02.1.07.19.12.26,1.89,2.62,5.05,4.03,8.24,3.68.21-.02.38-.12.52-.29l.02-.05.1.07-.04.05c-.14.19-.36.33-.61.35-3.24.36-6.46-1.06-8.36-3.73-.07-.09-.1-.19-.14-.29v-.03l.02.03Z"/>
  <path class="cls-36" d="M719.39,493.81h.02v.02h.04l-.09.14h-.02c-.19-.12-.42-.16-.64-.1-3.38.88-6.04,3.54-6.94,6.94-.02.1-.03.21-.02.29v.03h-.14c0-.12,0-.24.02-.35.9-3.44,3.61-6.14,7.04-7.04.26-.07.54-.02.76.12l-.03-.05Z"/>
  <path class="cls-37" d="M719.44,493.85h.02v.02c.19.16.31.36.36.61l1.65,10.43c.03.24-.02.5-.17.71l-.1-.09c.12-.19.17-.4.14-.61l-1.65-10.43c-.03-.21-.15-.4-.33-.52l.09-.12Z"/>
  <path class="cls-84" d="M711.58,501.12h.14c.02.12.05.21.1.29,1.89,2.95,5.24,4.67,8.75,4.46.22,0,.43-.12.57-.28h.02l.02-.05.1.09-.03.05c-.17.21-.42.33-.68.35-3.54.21-6.94-1.53-8.87-4.51-.07-.1-.1-.21-.12-.33v-.07Z"/>
  <path class="cls-38" d="M720.04,493.43h.02v.02h.04l-.11.14h-.03c-.21-.16-.45-.21-.69-.16-3.73.76-6.77,3.5-7.93,7.13-.04.1-.05.21-.04.33v.03h-.15v-.02c0-.14,0-.26.03-.38,1.18-3.68,4.27-6.45,8.03-7.23.28-.05.57,0,.82.17l.02-.03Z"/>
  <path class="cls-39" d="M720.09,493.49h.02v.02c.19.17.33.42.34.68l1.2,11.42c.03.26-.05.54-.22.76l-.12-.09c.14-.19.21-.42.17-.64l-1.2-11.42c-.02-.23-.14-.45-.31-.59l.1-.12.02-.02Z"/>
  <path class="cls-84" d="M711.14,500.91h.15c0,.12.05.23.1.33,1.89,3.31,5.43,5.36,9.23,5.33.24,0,.47-.1.64-.28h.02l.03-.05.12.09-.04.05c-.19.21-.47.33-.76.33-3.87.02-7.44-2.05-9.37-5.41-.07-.1-.1-.23-.12-.36v-.03l-.02.02Z"/>
  <path class="cls-24" d="M720.77,493.07h.02v.02h.04l-.11.14h-.03c-.21-.17-.49-.24-.75-.21-4.09.62-7.53,3.42-9,7.29-.04.12-.07.23-.05.35v.03h-.15v-.03c0-.14.02-.28.07-.42,1.49-3.94,5-6.77,9.14-7.39.31-.05.63.03.87.23h-.03Z"/>
  <path class="cls-27" d="M720.82,493.13h.02v.02c.21.19.33.47.35.75l.66,12.46c0,.29-.09.59-.28.82l-.12-.1c.16-.21.24-.45.22-.69l-.66-12.46c0-.24-.12-.49-.31-.66l.1-.12h.02Z"/>
  <path class="cls-84" d="M710.69,500.69h.15c0,.14.05.24.11.36,1.85,3.7,5.58,6.12,9.72,6.32.26,0,.52-.09.71-.26h.03l.04-.05.12.1-.05.05c-.22.23-.54.33-.85.31-4.2-.19-7.97-2.64-9.86-6.4-.07-.12-.1-.26-.1-.4v-.05l-.02.02Z"/>
  <path class="cls-26" d="M721.59,492.71h.02v.03l.03.03-.12.12-.02-.02h-.02c-.22-.21-.5-.29-.8-.26-4.48.43-8.38,3.28-10.2,7.41-.05.12-.09.24-.09.38v.03h-.17v-.05c0-.16.03-.31.1-.43,1.84-4.18,5.81-7.06,10.34-7.51.33-.03.68.07.94.29l-.02-.03Z"/>
  <path class="cls-28" d="M721.64,492.76h.02v.03c.21.23.33.52.33.83v13.55c0,.31-.14.62-.36.87l-.12-.12c.19-.21.29-.47.29-.73v-13.55c0-.28-.1-.54-.29-.73l.12-.12.02-.03Z"/>
  <path class="cls-84" d="M710.2,500.39h.17v.02c0,.16.03.28.09.4,1.82,4.13,5.73,6.96,10.2,7.41.28.03.57-.07.78-.24l.04-.03.03-.03.12.12-.05.05c-.26.23-.59.33-.94.29-4.55-.45-8.5-3.33-10.34-7.51-.05-.14-.09-.28-.1-.43v-.05.02Z"/>
  <path class="cls-29" d="M722.49,492.36h.02v.03l.03.03-.14.14-.02-.02h-.02c-.23-.24-.54-.35-.85-.33-4.88.23-9.28,3.09-11.49,7.46-.07.12-.1.26-.12.4v.03h-.19v-.07c0-.17.05-.33.12-.47,2.24-4.44,6.7-7.34,11.64-7.56.36,0,.73.12.99.38l.02-.03Z"/>
  <path class="cls-45" d="M722.55,492.43v.03h.02c.23.26.33.59.31.92l-.76,14.71c-.02.35-.17.68-.44.92l-.12-.14c.21-.21.34-.5.34-.78l.76-14.71c0-.29-.08-.59-.29-.82l.14-.14h.03Z"/>
  <path class="cls-84" d="M709.7,500.06h.19v.03c0,.16.02.29.07.43,1.73,4.58,5.81,7.88,10.64,8.62.31.05.62-.03.87-.23l.03-.03.03-.03.12.14-.07.05c-.29.23-.66.33-1.02.28-4.91-.75-9.04-4.09-10.79-8.74-.05-.16-.09-.31-.09-.49v-.05l.02.02Z"/>
  <path class="cls-31" d="M723.5,492.03h.02v.03l.03.03-.17.14s0-.02-.02-.02h-.02c-.24-.28-.56-.42-.9-.42-5.31-.03-10.25,2.81-12.89,7.44-.07.14-.12.28-.14.43v.03h-.21v-.07c.04-.19.09-.35.17-.5,2.69-4.68,7.69-7.58,13.08-7.55.4,0,.78.17,1.06.47l-.02-.03Z"/>
  <path class="cls-46" d="M723.56,492.12l.03.03c.23.29.33.66.29,1.02l-1.66,15.93c-.04.38-.23.73-.52.97l-.14-.16h.02c.24-.23.4-.52.44-.83l1.66-15.93c.03-.31-.07-.64-.26-.9l.17-.14h-.03Z"/>
  <path class="cls-84" d="M709.18,499.66h.21v.05c0,.17,0,.33.05.47,1.61,5.07,5.87,8.88,11.07,9.96.33.07.68,0,.95-.19l.03-.03.05-.03.14.16-.07.05c-.33.23-.75.31-1.13.24-5.27-1.09-9.58-4.96-11.22-10.1-.05-.17-.07-.35-.07-.54v-.05l-.02.02Z"/>
  <path class="cls-44" d="M724.61,491.73v.03h.03l.03.03-.19.14s0-.02-.02-.03h-.02c-.24-.31-.59-.49-.95-.5-5.76-.35-11.28,2.48-14.42,7.34-.09.14-.16.29-.19.47v.05l-.23-.03v-.05c.04-.21.1-.38.21-.54,3.17-4.93,8.78-7.79,14.62-7.44.44.03.85.24,1.13.57l-.02-.03Z"/>
  <path class="cls-30" d="M724.68,491.82l.03.03c.23.33.31.75.26,1.13l-2.73,17.19c-.07.4-.29.78-.62,1.02l-.14-.19h.02c.28-.23.45-.54.5-.87l2.72-17.19c.05-.35-.03-.71-.24-.99l.19-.14Z"/>
  <path class="cls-84" d="M708.63,499.21l.22.03v.03c-.02.19,0,.35.03.52,1.48,5.6,5.85,9.98,11.43,11.43.35.09.73.03,1.04-.16l.05-.03.05-.03.14.19-.09.05c-.36.23-.82.29-1.25.19-5.68-1.47-10.11-5.93-11.61-11.61-.05-.19-.05-.38-.03-.57v-.05Z"/>
  <path class="cls-47" d="M725.82,491.49v.03h.04l.03.05-.21.14s0-.02-.02-.03v-.03c-.28-.31-.64-.52-1.02-.57-6.23-.69-12.39,2.05-16.07,7.15-.1.16-.19.31-.22.49v.05l-.24-.05v-.07h.02c.05-.21.14-.4.26-.57,3.73-5.17,9.98-7.96,16.29-7.25.47.05.9.29,1.18.68h-.04Z"/>
  <path class="cls-35" d="M725.89,491.58l.04.03c.22.38.29.82.21,1.25l-3.94,18.51c-.09.43-.36.82-.73,1.08l-.14-.21h.02c.31-.23.52-.56.61-.92l3.94-18.51c.09-.36,0-.76-.21-1.09l.21-.14Z"/>
  <path class="cls-84" d="M708.05,498.69l.24.05v.03c-.03.21-.03.38,0,.56,1.28,6.16,5.78,11.17,11.76,13.06.38.12.8.09,1.15-.1l.05-.03.05-.03.14.21-.09.07c-.42.23-.9.28-1.35.14-6.07-1.93-10.64-7.01-11.94-13.26-.04-.21-.05-.42,0-.62v-.07h-.02Z"/>
  <path class="cls-33" d="M727.16,491.27v.03l.03.02.04.05-.24.14v-.02s0-.03-.02-.03v-.03c-.28-.36-.66-.61-1.07-.68-6.73-1.11-13.57,1.51-17.86,6.85-.12.16-.22.33-.28.52v.05l-.26-.07v-.07h.02c.07-.23.17-.43.31-.61,4.34-5.41,11.28-8.07,18.1-6.94.5.09.95.38,1.25.82l-.02-.03Z"/>
  <path class="cls-32" d="M727.22,491.39l.03.03c.23.42.28.9.16,1.35l-5.33,19.87c-.12.47-.44.87-.87,1.13l-.14-.23h.04c.34-.23.61-.57.71-.95l5.33-19.87c.1-.4.05-.83-.16-1.2l.24-.14h-.02Z"/>
  <path class="cls-84" d="M707.46,498.09l.26.07v.03c-.05.23-.05.42-.02.61,1.04,6.77,5.64,12.46,12.03,14.85.4.16.85.14,1.25-.05l.05-.03.07-.03.14.23-.1.07c-.47.23-1,.26-1.49.07-6.47-2.45-11.16-8.21-12.2-15.06-.04-.23-.02-.45.03-.69l.02-.07-.03.02Z"/>
  <path class="cls-34" d="M728.62,491.13v.03l.03.02.03.05-.26.14v-.02s0-.03-.02-.03v-.03c-.28-.4-.68-.69-1.13-.8-7.24-1.58-14.82.87-19.76,6.42-.14.16-.26.35-.33.56v.05l-.28-.09v-.07h.03c.09-.24.21-.45.38-.64,5.03-5.62,12.7-8.12,20.04-6.51.54.12,1.02.47,1.32.95l-.07-.03Z"/>
  <path class="cls-41" d="M728.68,491.25l.04.05c.22.47.26,1.01.1,1.49l-6.91,21.25c-.15.5-.52.92-.99,1.16l-.14-.26h.04c.38-.23.68-.59.81-1.01l6.91-21.25c.14-.43.1-.9-.1-1.3l.26-.14h-.02Z"/>
  <path class="cls-84" d="M706.86,497.39l.28.09v.03c-.07.23-.09.45-.05.66.75,7.39,5.41,13.85,12.22,16.81.43.19.92.19,1.35,0l.07-.03.07-.03.14.26-.12.05c-.52.23-1.11.23-1.61,0-6.89-3.02-11.64-9.54-12.39-17.06-.02-.24,0-.5.07-.75l.02-.07-.03.03Z"/>
  <path class="cls-40" d="M730.23,491.04v.05l.03.02.04.07-.29.14v-.02s0-.03-.02-.05v-.03c-.28-.45-.7-.8-1.18-.92-7.77-2.13-16.12.1-21.81,5.85-.15.17-.29.36-.38.57v.05l-.29-.12.03-.09c.12-.26.26-.49.45-.68,5.78-5.81,14.25-8.09,22.12-5.93.59.16,1.08.57,1.37,1.11l-.07-.02Z"/>
  <path class="cls-42" d="M730.29,491.18l.03.05c.21.52.22,1.09.02,1.61l-8.71,22.68c-.21.54-.63.97-1.15,1.21l-.12-.29h.04c.43-.23.78-.59.94-1.04l8.71-22.68c.17-.45.16-.97-.03-1.42l.29-.14-.02.02Z"/>
  <path class="cls-84" d="M706.25,496.61l.29.12v.03c-.09.24-.1.49-.1.71.38,8.07,5.1,15.34,12.3,18.95.45.23.99.26,1.47.09h.07l.09-.07.12.29-.14.05c-.57.21-1.22.17-1.75-.1-7.3-3.66-12.09-11.03-12.47-19.21,0-.28.04-.54.12-.8l.03-.09-.03.02Z"/>
  <path class="cls-48" d="M731.97,491.04v.05l.04.02.03.07-.33.12v-.03s0-.03-.02-.05v-.05c-.26-.5-.71-.9-1.23-1.08-8.31-2.76-17.5-.8-24.01,5.1-.19.17-.34.38-.45.61v.03s-.02.02-.04.03l-.31-.14.03-.09c.14-.28.31-.5.52-.71,6.59-5.99,15.93-7.96,24.36-5.17.63.21,1.15.68,1.42,1.28h-.02Z"/>
  <path class="cls-43" d="M732.01,491.19v.05c.19.57.17,1.2-.07,1.75l-10.74,24.12c-.26.57-.73,1.02-1.32,1.25l-.12-.33h.03c.49-.21.87-.61,1.07-1.08l10.74-24.12c.21-.49.22-1.04.03-1.54l.33-.12.03.02Z"/>
  <path class="cls-84" d="M705.61,495.72l.31.14v.07c-.1.24-.16.49-.16.75-.03,8.78,4.67,16.93,12.27,21.25.49.28,1.06.35,1.6.19h.07l.09-.05.12.33-.14.05c-.62.19-1.32.12-1.89-.21-7.72-4.39-12.49-12.65-12.45-21.57,0-.29.07-.59.17-.87l.04-.09h-.02Z"/>
  <path class="cls-49" d="M733.85,491.14v.05l.03.03.04.09-.36.12v-.05s0-.03-.02-.05v-.05c-.26-.57-.71-1.01-1.27-1.23-8.87-3.47-18.96-1.86-26.35,4.16-.21.17-.4.38-.52.62v.03s-.03.02-.03.03l-.33-.17.05-.09c.17-.29.36-.54.61-.73,7.5-6.12,17.75-7.74,26.74-4.23.66.26,1.2.8,1.47,1.47l-.05-.02Z"/>
  <path class="cls-11" d="M733.9,491.32v.07c.19.62.12,1.32-.17,1.89l-13.03,25.57c-.31.61-.85,1.06-1.49,1.28l-.12-.36h.03c.54-.21.99-.61,1.23-1.09l13.03-25.57c.26-.52.31-1.13.14-1.68l.36-.12.02.02Z"/>
  <path class="cls-84" d="M704.98,494.73l.33.17s0,.03-.02.05v.03c-.14.26-.21.52-.21.8-.54,9.53,4.09,18.63,12.11,23.77.5.33,1.13.43,1.72.29h.09l.1-.05.12.36-.16.05c-.69.17-1.44.05-2.05-.33-8.14-5.2-12.84-14.45-12.28-24.12.02-.31.1-.62.24-.92l.05-.09-.05-.03Z"/>
  <path class="cls-12" d="M735.88,491.37v.07l.03.03.04.09-.4.1v-.07s0-.05-.02-.07v-.05c-.24-.62-.71-1.15-1.3-1.41-9.42-4.27-20.47-3.11-28.85,3.04-.24.19-.45.4-.61.66v.03s-.03.02-.05.03l-.35-.21.05-.09c.19-.31.43-.56.69-.76,8.48-6.21,19.71-7.39,29.25-3.07.71.33,1.27.94,1.51,1.68v-.02Z"/>
  <path class="cls-13" d="M735.93,491.54v.07c.16.69.05,1.44-.29,2.05l-15.6,27.01c-.36.64-.99,1.11-1.7,1.3l-.1-.4h.05c.59-.19,1.09-.59,1.41-1.11l15.6-27.01c.31-.54.4-1.2.24-1.82l.4-.1v.02Z"/>
  <path class="cls-84" d="M704.36,493.61l.35.21s-.02.03-.02.05v.03c-.16.26-.24.56-.28.85-1.13,10.31,3.38,20.47,11.8,26.49.54.38,1.2.54,1.84.42h.09l.12-.05.1.4-.17.05c-.76.16-1.56-.02-2.21-.49-8.53-6.12-13.11-16.41-11.97-26.88.03-.35.14-.68.31-.99l.05-.1h-.02Z"/>
  <path class="cls-10" d="M738.08,491.72v.07l.02.03v.1l-.42.09v-.07s0-.05-.02-.07v-.07c-.23-.69-.69-1.28-1.34-1.6-9.99-5.17-22.05-4.53-31.49,1.65-.28.19-.5.42-.69.68v.03s-.03.02-.05.03l-.36-.24.07-.1c.23-.31.51-.59.8-.78,9.58-6.26,21.81-6.91,31.94-1.67.75.4,1.32,1.09,1.54,1.91Z"/>
  <path class="cls-18" d="M738.14,491.93v.09c.14.76-.02,1.56-.44,2.2l-18.48,28.44c-.43.68-1.13,1.15-1.93,1.32l-.09-.43h.05c.64-.17,1.23-.57,1.58-1.13l18.48-28.44c.36-.57.5-1.28.36-1.96l.43-.09h.02Z"/>
  <path class="cls-84" d="M703.73,492.36l.36.24s-.02.03-.04.05v.03c-.19.28-.29.59-.34.9-1.82,11.14,2.51,22.42,11.29,29.44.56.45,1.29.64,1.98.56h.1l.12-.03.09.43-.19.03c-.85.12-1.7-.12-2.36-.64-8.92-7.13-13.31-18.56-11.47-29.84.07-.36.19-.73.4-1.06l.07-.1-.02-.02Z"/>
  <path class="cls-16" d="M740.46,492.22v.07l.02.03v.1l-.47.07v-.21c-.21-.76-.69-1.42-1.35-1.82-10.55-6.18-23.68-6.18-34.27,0-.31.19-.57.42-.8.69v.03s-.05.03-.07.03l-.38-.28.07-.1c.28-.33.57-.61.92-.8,10.74-6.26,24.07-6.26,34.75,0,.8.47,1.37,1.25,1.58,2.17Z"/>
  <path class="cls-19" d="M740.5,492.45v.09c.1.83-.1,1.7-.61,2.38l-21.67,29.82c-.5.69-1.3,1.18-2.15,1.32l-.07-.47h.05c.71-.14,1.37-.56,1.79-1.13l21.67-29.83c.44-.61.63-1.37.51-2.1l.49-.07v-.02Z"/>
  <path class="cls-84" d="M703.14,490.97l.38.28s-.02.03-.03.05v.03c-.22.29-.36.62-.44.97-2.6,11.97,1.44,24.46,10.59,32.6.57.52,1.35.76,2.12.71h.1l.14-.03.07.47-.21.03c-.92.09-1.84-.23-2.53-.83-9.28-8.24-13.39-20.91-10.74-33.05.08-.4.26-.78.49-1.13l.07-.1Z"/>
  <path class="cls-17" d="M743.01,492.91v.24l-.5.05v-.24c-.17-.85-.66-1.58-1.35-2.05-11.09-7.3-25.35-8.05-37.2-1.96-.34.19-.64.42-.9.71l-.04.03s-.03.03-.03.05l-.4-.33.09-.1c.31-.35.66-.62,1.04-.82,12.02-6.18,26.48-5.43,37.74,1.98.83.56,1.41,1.44,1.58,2.43h-.02Z"/>
  <path class="cls-15" d="M743.05,493.16v.1c.07.92-.21,1.84-.78,2.53l-25.21,31.14c-.59.73-1.48,1.21-2.41,1.32l-.05-.52h.07c.78-.1,1.51-.52,1.99-1.13l25.21-31.14c.5-.62.75-1.44.68-2.26l.52-.05h-.02Z"/>
  <path class="cls-84" d="M702.57,489.42l.4.33s-.03.03-.03.05l-.04.03c-.24.31-.4.66-.5,1.02-3.51,12.86.17,26.63,9.65,35.98.59.59,1.42.92,2.26.88h.12l.16-.02.05.52h-.24v.02c-1.01.03-2-.35-2.71-1.04-9.59-9.47-13.34-23.46-9.78-36.49.12-.43.31-.83.59-1.2l.09-.1Z"/>
  <path class="cls-14" d="M745.74,493.8v.26l-.57.03v-.26c-.14-.92-.63-1.75-1.35-2.29-11.62-8.55-27.05-10.18-40.27-4.23-.38.17-.73.42-1.02.73l-.03.03s-.03.03-.05.05l-.42-.38.1-.12c.36-.35.75-.64,1.18-.83,13.4-6.02,29.04-4.37,40.84,4.3.87.64,1.44,1.65,1.58,2.72l.02-.02Z"/>
  <path class="cls-57" d="M745.76,494.08v.1c.02.99-.33,1.98-1.01,2.71l-29.15,32.36c-.68.76-1.66,1.23-2.71,1.28l-.04-.57h.07c.85-.07,1.66-.47,2.24-1.11l29.15-32.36c.59-.66.9-1.53.85-2.41l.57-.03.02.03Z"/>
  <path class="cls-84" d="M702.03,487.73l.42.38s-.04.03-.05.05l-.03.03c-.28.33-.47.69-.61,1.08-4.54,13.76-1.32,28.92,8.42,39.61.61.68,1.49,1.08,2.39,1.09h.28l.03.57h-.26c-1.09,0-2.13-.49-2.86-1.28-9.87-10.83-13.15-26.22-8.55-40.17.15-.47.4-.88.71-1.27l.1-.12.02.02Z"/>
  <path class="cls-58" d="M748.64,494.92v.29h-.63v-.31c-.09-1.01-.57-1.94-1.34-2.57-12.13-9.96-28.78-12.6-43.46-6.89-.44.17-.82.42-1.15.73l-.04.03s-.03.03-.05.05l-.44-.43.12-.12c.42-.36.85-.64,1.32-.83,14.89-5.78,31.79-3.11,44.09,6.99.92.75,1.48,1.86,1.56,3.05Z"/>
  <path class="cls-59" d="M748.65,495.22v.12c-.04,1.08-.49,2.12-1.23,2.88l-33.47,33.47c-.78.78-1.87,1.23-3,1.25v-.62h.07c.93-.02,1.84-.42,2.48-1.06l33.47-33.47c.68-.68,1.06-1.61,1.06-2.57h.63Z"/>
  <path class="cls-84" d="M701.55,485.83l.43.43s-.03.03-.05.07l-.04.03c-.31.33-.56.73-.73,1.15-5.71,14.68-3.07,31.32,6.89,43.46.62.76,1.56,1.25,2.55,1.34h.31v.62h-.28c-1.18-.09-2.29-.64-3.04-1.56-10.11-12.32-12.79-29.22-6.99-44.09.19-.49.49-.94.85-1.34l.12-.12h-.03Z"/>
  <path class="cls-53" d="M751.74,496.32v.31l-.68-.03v-.33c-.03-1.11-.5-2.13-1.3-2.86-12.62-11.5-30.54-15.3-46.79-9.94-.47.16-.9.4-1.29.73l-.03.03s-.04.03-.07.05l-.45-.5.14-.12c.47-.36.95-.66,1.49-.83,16.48-5.43,34.67-1.56,47.45,10.1.96.87,1.49,2.1,1.51,3.4h.02Z"/>
  <path class="cls-54" d="M751.72,496.63v.12h-.02c-.1,1.18-.64,2.27-1.51,3.07l-38.24,34.42c-.9.82-2.12,1.23-3.33,1.18l.03-.68h.09c1,.03,2.01-.35,2.76-1.01l38.24-34.42c.76-.69,1.25-1.68,1.3-2.72l.68.03Z"/>
  <path class="cls-84" d="M701.13,483.77l.45.5s-.03.03-.05.07l-.03.03c-.36.35-.64.76-.85,1.2-7.04,15.6-5.12,33.83,5,47.57.64.87,1.61,1.44,2.69,1.58h.15l.19.03-.03.68h-.31v-.02c-1.29-.16-2.45-.83-3.21-1.87-10.27-13.95-12.21-32.43-5.08-48.25.24-.52.57-.99.99-1.41l.14-.12h-.04Z"/>
  <path class="cls-55" d="M755.03,497.98v.35l-.75-.07v-.35c.04-1.2-.42-2.36-1.25-3.17-13.03-13.19-32.27-18.34-50.23-13.46-.52.16-1.01.38-1.44.71l-.05.03s-.05.03-.07.05l-.45-.57.15-.12c.54-.38,1.08-.66,1.67-.82,18.2-4.94,37.72.28,50.94,13.65.97,1.01,1.51,2.38,1.46,3.78l.02-.02Z"/>
  <path class="cls-56" d="M754.99,498.33v.14h-.04c-.17,1.27-.81,2.43-1.82,3.24l-43.46,35.2c-1.02.83-2.36,1.21-3.68,1.09l.07-.73h.09c1.09.1,2.22-.26,3.05-.94l43.46-35.2c.87-.71,1.44-1.75,1.58-2.88l.73.07h.02Z"/>
  <path class="cls-84" d="M700.8,481.5l.45.57s-.05.03-.07.07l-.05.03c-.42.36-.75.78-.99,1.25-8.52,16.53-7.49,36.44,2.73,51.93.64.97,1.68,1.67,2.83,1.87l.15.03h.21l-.07.75-.33-.03c-1.39-.24-2.62-1.04-3.38-2.22-10.36-15.72-11.42-35.9-2.78-52.66.28-.56.68-1.04,1.16-1.46l.15-.12-.02-.02Z"/>
  <path class="cls-50" d="M758.48,499.99v.12l-.02.05v.19l-.82-.12v-.12c0-.05.02-.09,0-.12v-.12c.1-1.3-.31-2.59-1.16-3.52-13.4-15.06-33.99-21.76-53.75-17.47-.57.14-1.11.36-1.6.69l-.05.03s-.05.03-.08.05l-.47-.64.17-.12c.59-.38,1.22-.66,1.86-.8,20.04-4.34,40.93,2.45,54.51,17.71,1.01,1.15,1.51,2.65,1.37,4.18h.04Z"/>
  <path class="cls-51" d="M758.44,500.35v.16h-.04c-.26,1.37-1.02,2.6-2.15,3.42l-49.19,35.74c-1.16.83-2.63,1.2-4.06.97l.12-.78h.09c1.18.17,2.41-.14,3.36-.83l49.19-35.74c.99-.71,1.66-1.82,1.87-3.04l.8.12v-.02Z"/>
  <path class="cls-84" d="M700.56,478.99l.47.64s-.05.03-.07.07l-.05.03c-.47.36-.85.82-1.15,1.3-10.2,17.45-10.2,39.11,0,56.53.64,1.09,1.72,1.89,2.97,2.2l.17.03.22.03-.12.78-.36-.05c-1.49-.35-2.78-1.28-3.54-2.6-10.34-17.65-10.34-39.61,0-57.32.35-.59.8-1.09,1.34-1.53l.17-.14-.05.02Z"/>
  <path class="cls-52" d="M762.11,502.37v.14l-.03.07-.04.19-.85-.17v-.14c0-.07.04-.09.02-.14v-.12c.19-1.41-.19-2.81-1.06-3.89-13.67-17.11-35.65-25.54-57.34-22.02-.63.12-1.23.33-1.77.66l-.07.03s-.05.03-.09.05l-.47-.73.19-.12c.68-.38,1.36-.64,2.05-.76,22-3.57,44.3,4.98,58.18,22.33,1.02,1.3,1.47,2.97,1.25,4.63l.03-.02Z"/>
  <path class="cls-67" d="M762.05,502.77l-.03.16h-.02c-.36,1.46-1.27,2.76-2.53,3.57l-55.42,35.98c-1.3.85-2.93,1.15-4.46.83l.17-.85h.1c1.29.26,2.64,0,3.71-.71l55.42-35.98c1.11-.73,1.91-1.89,2.2-3.19l.85.17v.02Z"/>
  <path class="cls-84" d="M700.45,476.29l.47.73s-.07.03-.09.07l-.07.03c-.54.36-.97.83-1.32,1.35-12.06,18.37-13.29,41.88-3.21,61.35.64,1.23,1.77,2.15,3.09,2.55l.19.05.24.05-.17.85-.38-.09c-1.6-.47-2.95-1.56-3.7-3.02-10.22-19.74-8.97-43.6,3.24-62.22.4-.61.92-1.15,1.54-1.58l.19-.14h-.04Z"/>
  <path class="cls-68" d="M765.93,505.16l-.03.14v.07l-.07.21-.92-.24v-.07h.02s0-.05.02-.07c.02-.07.03-.1.03-.14l.04-.14c.28-1.51-.07-3.07-.95-4.29-13.88-19.35-37.25-29.76-61.01-27.17-.69.09-1.35.28-1.96.61l-.07.03s-.07.03-.1.05l-.47-.82.23-.12c.74-.36,1.49-.62,2.27-.71,24.08-2.62,47.8,7.93,61.87,27.55,1.04,1.46,1.44,3.31,1.07,5.08l.03.02Z"/>
  <path class="cls-69" d="M765.85,505.58l-.03.17h-.04c-.47,1.56-1.53,2.91-2.95,3.73l-62.2,35.91c-1.46.85-3.24,1.08-4.89.64l.24-.9.1.03c1.37.33,2.86.1,4.06-.59l62.2-35.91c1.25-.73,2.19-1.94,2.57-3.33l.92.24h.02Z"/>
  <path class="cls-84" d="M700.49,473.34l.47.82s-.07.03-.1.07l-.07.03c-.61.36-1.09.85-1.51,1.39-14.14,19.26-16.81,44.69-6.97,66.42.62,1.37,1.78,2.45,3.21,2.95l.21.07.26.07-.24.9-.42-.1c-1.7-.59-3.1-1.86-3.85-3.49-9.98-22.02-7.27-47.83,7.06-67.35.47-.64,1.07-1.18,1.77-1.61l.22-.14-.03-.02Z"/>
  <path class="cls-63" d="M769.93,508.41l-.04.16v.07l-.09.23-.99-.31v-.1h.02s.02-.05.02-.07c.02-.07.04-.1.04-.16l.03-.14c.38-1.63.1-3.33-.78-4.7-13.97-21.79-38.74-34.42-64.66-32.95-.76.05-1.49.23-2.17.56l-.07.03s-.07.02-.1.05l-.47-.9.24-.12c.83-.36,1.67-.59,2.52-.64,26.29-1.47,51.42,11.33,65.58,33.43,1.04,1.65,1.37,3.68.88,5.59l.04-.02Z"/>
  <path class="cls-64" d="M769.8,508.86l-.05.19h-.03c-.61,1.67-1.84,3.07-3.42,3.89l-69.56,35.45c-1.63.83-3.57.97-5.34.42l.31-.97.12.03c1.47.43,3.09.28,4.44-.4l69.56-35.45c1.41-.71,2.48-1.98,2.99-3.47l.99.31Z"/>
  <path class="cls-84" d="M700.7,470.15l.47.9s-.07.03-.1.07l-.07.03c-.68.36-1.25.85-1.72,1.42-16.43,20.09-20.78,47.56-11.36,71.69.59,1.53,1.8,2.76,3.31,3.38l.21.09.28.09-.31.97-.43-.14c-1.82-.75-3.26-2.19-3.97-4.01-9.58-24.46-5.17-52.33,11.5-72.7.56-.68,1.23-1.23,2.01-1.67l.24-.14h-.05Z"/>
  <path class="cls-65" d="M774.07,512.14l-.05.17-.04.09-.09.24-1.04-.4s0-.03.02-.05v-.05h.03s.02-.07.03-.09c.04-.09.05-.12.05-.17l.05-.16c.51-1.75.3-3.61-.59-5.15-13.91-24.45-40.1-39.56-68.31-39.45-.81,0-1.63.17-2.38.49l-.09.03s-.08.02-.12.03l-.45-1.01.28-.12c.94-.35,1.84-.54,2.76-.54,28.63-.1,55.17,15.22,69.3,40.01,1.04,1.84,1.28,4.06.64,6.11l-.02.02Z"/>
  <path class="cls-66" d="M773.9,512.64l-.07.19h-.04c-.75,1.77-2.17,3.24-3.94,4.03l-77.52,34.51c-1.82.82-3.94.87-5.83.16l.4-1.04.12.05c1.58.56,3.35.49,4.86-.19l77.52-34.51c1.56-.69,2.81-2,3.44-3.61l1.04.4.02.02Z"/>
  <path class="cls-84" d="M701.1,466.68l.45,1.01s-.09.03-.12.07l-.09.03c-.75.36-1.41.85-1.94,1.44-18.98,20.89-25.28,50.45-16.41,77.17.55,1.68,1.8,3.09,3.4,3.85l.23.1.29.12-.4,1.04-.47-.17c-1.93-.9-3.42-2.57-4.09-4.58-9.01-27.1-2.64-57.1,16.62-78.27.64-.69,1.41-1.27,2.27-1.68l.28-.14h-.02Z"/>
  <path class="cls-60" d="M778.35,516.44l-.07.17-.04.09-.1.26-1.11-.5s0-.03.02-.05v-.05h.03c0-.05.04-.07.04-.09.03-.09.07-.12.07-.17l.07-.16c.66-1.87.54-3.9-.33-5.64-13.71-27.33-41.28-45.23-71.92-46.71-.9-.03-1.77.09-2.62.38l-.1.03s-.09.02-.14.03l-.44-1.13.29-.12c1.02-.31,2.03-.49,3.04-.43,31.07,1.51,59.03,19.66,72.94,47.38,1.02,2.06,1.16,4.49.34,6.68l.02.02Z"/>
  <path class="cls-61" d="M778.15,516.98l-.09.21h-.04c-.92,1.89-2.53,3.38-4.49,4.15l-86.11,33.05c-2.03.78-4.32.71-6.33-.17l.49-1.09.14.05c1.68.69,3.61.71,5.27.07l86.11-33.05c1.73-.66,3.16-2.01,3.94-3.71l1.11.5Z"/>
  <path class="cls-84" d="M701.74,462.95l.43,1.13s-.1.03-.14.07l-.1.03c-.83.35-1.56.85-2.19,1.46-21.79,21.58-30.31,53.32-22.19,82.83.5,1.86,1.79,3.45,3.47,4.39l.24.12.31.14-.49,1.09-.5-.23c-2.05-1.09-3.58-2.98-4.18-5.2-8.22-29.93.4-62.13,22.49-84.01.73-.73,1.6-1.28,2.57-1.7l.29-.12h-.02Z"/>
  <path class="cls-62" d="M782.76,521.37l-.09.19-.05.09-.14.28-1.18-.61s.02-.03.03-.05l.03-.05s.04-.07.05-.09c.05-.09.07-.12.09-.19l.07-.17c.81-2,.8-4.22-.05-6.12-13.33-30.45-42.23-51.44-75.4-54.79-.97-.09-1.93,0-2.86.26l-.1.03s-.11,0-.16.03l-.4-1.23.33-.1v.03c1.15-.31,2.24-.43,3.31-.33,33.64,3.4,62.95,24.71,76.48,55.57.99,2.31,1,4.94,0,7.27l.03-.02Z"/>
  <path class="cls-79" d="M782.51,521.92l-.11.23h-.03c-1.09,2-2.95,3.54-5.12,4.23l-95.35,30.99c-2.24.73-4.74.52-6.87-.54l.59-1.16.14.07c1.79.85,3.87.99,5.73.38l95.36-30.99c1.93-.62,3.54-2.01,4.48-3.82l1.18.61h.02Z"/>
  <path class="cls-84" d="M702.64,458.93l.4,1.23s-.1.03-.16.07l-.1.03c-.92.33-1.75.83-2.46,1.46-24.88,22.19-35.93,56.14-28.8,88.64.45,2.05,1.73,3.85,3.52,4.96l.26.16.33.17-.59,1.16h-.02l-.54-.28c-2.15-1.3-3.71-3.44-4.23-5.88-7.24-32.97,3.95-67.42,29.2-89.91.83-.75,1.8-1.3,2.88-1.7l.33-.12h-.02Z"/>
  <path class="cls-77" d="M787.27,526.94l-.1.21-.05.09-.15.29-1.25-.73s.02-.03.03-.05l.03-.05s.04-.09.05-.1c.05-.09.09-.14.1-.21l.09-.19c.99-2.12,1.11-4.53.29-6.66-12.74-33.82-42.91-58.23-78.72-63.76-1.04-.14-2.1-.12-3.12.12l-.12.03s-.1,0-.17.03l-.36-1.37.36-.1v.03c1.27-.28,2.46-.35,3.63-.16,36.33,5.6,66.94,30.4,79.84,64.68.95,2.55.8,5.41-.42,7.89h.03Z"/>
  <path class="cls-73" d="M786.96,527.53l-.12.24h-.03c-1.3,2.1-3.4,3.66-5.8,4.3l-105.26,28.21c-2.46.66-5.17.29-7.43-.97l.71-1.23.16.09c1.89,1.02,4.14,1.28,6.19.75l105.26-28.21c2.12-.57,3.97-1.98,5.09-3.89l1.25.73-.02-.02Z"/>
  <path class="cls-84" d="M703.84,454.62l.36,1.37s-.12.03-.17.07l-.12.03c-1.02.31-1.95.8-2.76,1.44-28.28,22.68-42.2,58.9-36.31,94.59.36,2.26,1.66,4.29,3.54,5.59l.28.17.34.21-.71,1.23h-.02l-.56-.33c-2.27-1.54-3.83-3.94-4.27-6.63-5.97-36.19,8.14-72.96,36.8-95.93.95-.76,2.03-1.32,3.23-1.68l.36-.12v-.02Z"/>
  <path class="cls-78" d="M791.84,533.25l-.12.21-.07.1-.19.31-1.32-.85s.02-.03.03-.05l.03-.05s.05-.09.07-.1c.07-.1.1-.14.12-.21l.11-.19c1.2-2.24,1.46-4.84.69-7.22-11.9-37.42-43.25-65.65-81.82-73.69-1.13-.23-2.27-.24-3.4-.03l-.12.03s-.12,0-.17.02l-.31-1.51.4-.09v.03c1.39-.23,2.69-.23,3.94.03,39.11,8.15,70.93,36.8,83.01,74.74.88,2.83.57,5.92-.9,8.54l.04-.03Z"/>
  <path class="cls-75" d="M791.48,533.87l-.16.26h-.03c-1.55,2.2-3.9,3.78-6.54,4.34l-115.86,24.62c-2.73.57-5.64.03-8-1.47l.85-1.3.15.1c1.98,1.21,4.43,1.63,6.68,1.16l115.86-24.62c2.32-.5,4.42-1.93,5.73-3.92l1.32.85v-.02Z"/>
  <path class="cls-84" d="M705.4,450.01l.31,1.51s-.12.03-.19.05l-.12.03c-1.13.28-2.15.76-3.07,1.42-31.98,23.01-49.15,61.54-44.8,100.6.28,2.46,1.56,4.75,3.54,6.26l.28.21.38.24-.85,1.3h-.02l-.59-.38c-2.38-1.8-3.94-4.49-4.25-7.44-4.43-39.63,12.98-78.72,45.4-102.04,1.07-.76,2.27-1.32,3.59-1.65l.4-.1-.02-.02Z"/>
  <path class="cls-72" d="M796.45,540.38l-.14.23-.07.1-.22.33-1.39-1.01s.04-.03.05-.07l.05-.07h.02s.05-.09.07-.1c.07-.1.12-.14.14-.23l.14-.21c1.42-2.36,1.86-5.17,1.18-7.79-10.79-41.29-43.22-73.72-84.64-84.65-1.21-.29-2.44-.4-3.68-.24h-.14s-.12.02-.19.03l-.26-1.65.45-.07v.03c1.51-.17,2.93-.1,4.27.26,41.99,11.09,74.88,43.98,85.83,85.85.8,3.12.28,6.45-1.46,9.21l-.02.03Z"/>
  <path class="cls-76" d="M796,541.02l-.17.26-.03-.03c-1.8,2.32-4.44,3.9-7.34,4.37l-127.18,20.14c-2.98.47-6.11-.29-8.6-2.06l.99-1.35.16.12c2.08,1.44,4.72,2.03,7.18,1.63l127.18-20.14c2.57-.4,4.91-1.84,6.46-3.94l1.39,1.01h-.02Z"/>
  <path class="cls-84" d="M707.34,445.1l.26,1.65s-.14.02-.21.05h-.14c-1.23.26-2.38.73-3.42,1.39-36.02,23.14-56.86,64-54.34,106.65.15,2.69,1.42,5.24,3.47,6.99l.29.24.4.28-.99,1.35h-.03l-.63-.45c-2.48-2.08-4.01-5.1-4.2-8.33-2.55-43.25,18.57-84.72,55.09-108.18,1.22-.78,2.55-1.3,3.99-1.58l.45-.09v.02Z"/>
  <path class="cls-74" d="M801.05,548.37l-.17.24-.09.1-.26.35-1.44-1.16s.03-.03.05-.07l.05-.07h.02s.07-.09.09-.1c.09-.1.14-.16.17-.24l.16-.21c1.68-2.48,2.31-5.52,1.72-8.38-9.35-45.44-42.72-82.48-87.05-96.69-1.3-.4-2.63-.57-3.99-.47h-.15s-.14,0-.21.02l-.19-1.8.49-.05v.03c1.65-.09,3.17.05,4.61.52,44.95,14.42,78.79,52,88.3,98.08.69,3.44-.07,7.03-2.1,9.92v-.02Z"/>
  <path class="cls-71" d="M800.53,549.04l-.21.28-.03-.03c-2.08,2.43-5.05,3.99-8.22,4.32l-139.18,14.63c-3.26.35-6.63-.66-9.21-2.72l1.15-1.42.17.14c2.19,1.68,5,2.46,7.7,2.19l139.18-14.63c2.79-.29,5.43-1.72,7.22-3.9l1.44,1.16Z"/>
  <path class="cls-84" d="M709.75,439.86l.19,1.8s-.15,0-.22.05h-.16c-1.35.19-2.63.64-3.78,1.3-40.43,23.08-65.36,66.24-65.06,112.67,0,2.93,1.25,5.78,3.38,7.79l.31.28.42.33-1.15,1.42h-.03l-.64-.52c-2.57-2.41-4.06-5.78-4.08-9.26-.31-47.11,24.97-90.9,65.95-114.29,1.35-.78,2.85-1.27,4.43-1.49l.49-.07-.04-.02Z"/>
  <path class="cls-70" d="M805.58,557.3l-.21.24-.1.1-.29.36-1.49-1.35s.03-.05.05-.07l.05-.07h.02s.09-.09.1-.1c.1-.1.16-.16.21-.24l.17-.23c1.98-2.6,2.83-5.85,2.34-9-7.58-49.86-41.68-91.96-88.99-109.91-1.39-.5-2.83-.76-4.31-.73h-.42l-.1-1.98.54-.03v.03c1.78,0,3.44.24,4.98.83,47.97,18.2,82.57,60.92,90.25,111.47.56,3.76-.47,7.63-2.85,10.65l.04.02Z"/>
  <path class="cls-82" d="M804.97,558.01l-.24.29-.05-.03c-2.39,2.52-5.71,4.04-9.18,4.23l-151.92,7.96c-3.58.19-7.15-1.09-9.85-3.49l1.34-1.47.17.16c2.27,1.94,5.29,2.97,8.24,2.81l151.92-7.96c3.05-.16,5.99-1.54,8.07-3.83l1.49,1.35.02-.02Z"/>
  <path class="cls-84" d="M712.65,434.32l.1,1.98s-.17,0-.26.03h-.17c-1.49.12-2.9.54-4.18,1.18-45.2,22.75-74.71,68.19-77.03,118.61-.16,3.17,1.04,6.33,3.23,8.64l.31.33.42.38-1.34,1.47h-.02l-.02-.02-.68-.61c-2.66-2.76-4.09-6.49-3.9-10.29,2.34-51.15,32.27-97.25,78.09-120.31,1.51-.76,3.16-1.21,4.89-1.37l.54-.05.02.02Z"/>
  <path class="cls-81" d="M809.99,567.24l-.22.26-.12.12-.34.36-1.54-1.54s.05-.05.07-.07l.07-.07h.03s.09-.09.12-.12c.1-.1.19-.16.22-.24l.19-.24c2.29-2.69,3.4-6.19,3.05-9.65-5.38-54.55-40.01-102.17-90.32-124.37-1.47-.62-3.04-.99-4.63-1.04h-.43v-2.15h.57v.05c.16,0,.33,0,.47.03,1.77.12,3.38.49,4.89,1.13,51.04,22.5,86.16,70.84,91.64,126.15.4,4.11-.95,8.24-3.7,11.38h-.02Z"/>
  <path class="cls-80" d="M809.29,567.99l-.28.29-.05-.05c-2.76,2.59-6.42,4.06-10.2,4.06h-165.35c-3.89,0-7.7-1.6-10.5-4.34l1.53-1.53.19.19c2.36,2.24,5.57,3.52,8.78,3.52h165.35c3.33,0,6.59-1.34,8.97-3.7l1.54,1.54h.02Z"/>
  <path class="cls-84" d="M716.12,428.49v2.15h-.47c-1.63.05-3.17.42-4.61,1.04-50.35,22.14-84.96,69.76-90.34,124.37-.35,3.45.75,6.94,3,9.58l.33.36.45.45-1.53,1.51h-.03l-.69-.71c-1.58-1.84-2.71-3.99-3.28-6.28-.24-.97-.4-1.96-.45-2.97v-1.41c0-.24.03-.49.07-.73.11-1.15.24-2.31.38-3.45,6.54-53.94,41.24-100.73,91.25-122.7,1.44-.62,2.95-.99,4.53-1.13.28-.03.55-.05.85-.07h.59l-.04-.02Z"/>
</svg>